<?xml version="1.0" standalone="no"?>
<!DOCTYPE svg PUBLIC "-//W3C//DTD SVG 20010904//EN"
 "http://www.w3.org/TR/2001/REC-SVG-20010904/DTD/svg10.dtd">
<svg version="1.0" xmlns="http://www.w3.org/2000/svg"
 width="675.000000pt" height="675.000000pt" viewBox="0 0 675.000000 675.000000"
 preserveAspectRatio="xMidYMid meet">
<metadata>
Created by potrace 1.10, written by Peter Selinger 2001-2011
</metadata>
<g transform="translate(0.000000,675.000000) scale(0.100000,-0.100000)"
fill="#ed811d" stroke="none">
<path d="M3476 5853 c-3 -3 -6 -18 -6 -32 0 -14 -7 -44 -14 -66 -18 -50 -16
-229 2 -247 7 -7 12 -22 12 -33 0 -12 12 -40 28 -62 15 -21 32 -46 37 -55 6
-9 33 -50 60 -90 47 -69 108 -182 119 -220 3 -10 10 -18 16 -18 6 0 10 34 10
89 0 89 -20 180 -47 212 -7 8 -13 20 -13 26 0 5 -11 23 -25 39 -29 32 -83 113
-108 159 -47 88 -52 109 -49 202 2 84 -4 113 -22 96z"/>
<path d="M3275 5549 c-55 -67 -75 -122 -75 -211 0 -88 5 -100 87 -248 17 -30
41 -75 53 -100 12 -25 26 -53 32 -64 5 -10 12 -61 15 -112 5 -76 3 -98 -11
-118 -9 -14 -16 -32 -16 -39 0 -35 -125 -197 -152 -197 -11 0 -10 34 1 45 22
24 53 156 46 198 -14 89 -67 191 -134 254 -32 31 -101 135 -101 154 0 27 -11
50 -21 43 -15 -9 -10 -136 6 -168 8 -15 15 -35 15 -42 0 -8 9 -31 20 -51 20
-37 27 -114 14 -147 -7 -18 -88 -23 -99 -6 -16 25 -24 4 -24 -65 0 -41 -5 -84
-11 -94 -5 -11 -10 -29 -10 -41 0 -21 -12 -52 -45 -125 -8 -16 -19 -41 -25
-55 -6 -14 -18 -37 -28 -52 -28 -43 -97 -143 -102 -148 -10 -9 -190 -318 -190
-326 0 -3 -16 -39 -35 -80 -19 -41 -35 -82 -35 -92 -1 -9 -7 -28 -15 -42 -8
-14 -14 -36 -15 -51 0 -14 -6 -31 -12 -38 -10 -9 -13 -58 -13 -180 1 -134 5
-179 20 -226 36 -117 111 -213 224 -289 68 -45 164 -89 174 -79 3 3 -13 41
-35 84 l-40 80 4 124 c2 79 8 129 16 137 7 7 12 23 12 36 0 13 6 36 14 50 8
15 25 48 37 75 12 26 26 47 30 47 4 0 10 11 13 25 8 31 95 153 173 243 134
155 347 352 381 352 20 0 22 -5 22 -47 0 -48 20 -123 46 -176 8 -16 14 -35 14
-42 0 -8 6 -20 13 -27 6 -7 24 -31 39 -54 35 -54 69 -89 158 -162 93 -76 130
-113 130 -129 0 -7 4 -13 9 -13 5 0 13 -10 17 -22 3 -13 13 -31 22 -40 19 -23
12 -150 -12 -193 -9 -16 -16 -36 -16 -43 0 -7 -7 -24 -16 -38 -11 -15 -13 -29
-8 -34 12 -12 125 88 155 138 13 20 26 39 30 42 15 11 67 118 85 175 15 48 19
90 19 206 0 94 -4 151 -11 160 -7 8 -15 30 -19 49 -4 19 -11 40 -14 45 -4 6
-18 35 -31 65 -12 30 -47 93 -78 139 l-55 83 0 80 c0 101 25 176 75 231 21 22
38 44 38 49 0 13 -63 9 -94 -7 -15 -8 -33 -15 -40 -15 -6 0 -38 -24 -72 -52
-33 -29 -80 -69 -104 -88 -23 -19 -51 -43 -61 -52 -11 -10 -23 -18 -29 -18
-12 0 -13 47 -1 54 5 3 18 23 29 43 10 21 34 65 52 98 18 33 44 80 57 104 50
91 61 198 32 289 -10 32 -29 44 -29 19 0 -7 -9 -32 -20 -55 -27 -55 -58 -80
-213 -167 -24 -14 -28 -14 -33 -1 -6 14 51 134 70 147 4 4 13 26 18 50 35 159
12 219 -150 388 -30 31 -70 85 -90 121 -36 63 -37 68 -37 168 0 56 -3 102 -6
102 -4 0 -19 -14 -34 -31z"/>
<path d="M2706 4808 c-9 -21 -16 -51 -16 -67 0 -16 -4 -32 -9 -35 -5 -3 -12
-18 -16 -33 -20 -81 -199 -277 -304 -333 -50 -26 -149 -135 -180 -197 -28 -57
-31 -71 -31 -162 0 -71 5 -112 16 -138 41 -96 56 -123 64 -118 5 3 8 38 7 79
-1 42 3 83 10 97 7 13 17 35 23 49 28 68 86 145 202 265 42 44 89 96 104 115
16 19 31 37 34 40 8 7 73 118 88 150 46 100 66 267 37 307 -13 17 -15 15 -29
-19z"/>
<path d="M3356 3608 c-2 -7 -11 -37 -20 -67 -9 -29 -16 -59 -16 -66 0 -7 -7
-26 -15 -41 -8 -16 -15 -37 -15 -46 0 -9 -4 -20 -10 -23 -5 -3 -10 -18 -10
-33 -1 -15 -9 -45 -20 -67 -11 -22 -19 -47 -20 -55 0 -19 -34 -117 -43 -127
-4 -3 -7 -16 -7 -27 0 -12 -7 -34 -15 -50 -8 -15 -15 -36 -15 -45 0 -9 -7 -29
-15 -45 -8 -15 -15 -40 -15 -55 0 -14 -6 -37 -13 -51 -7 -14 -24 -59 -36 -100
-13 -41 -27 -82 -31 -91 -5 -9 -12 -33 -15 -52 -4 -20 -13 -41 -20 -47 -9 -7
-189 -11 -569 -11 -306 0 -556 -3 -556 -8 0 -5 24 -26 53 -48 90 -69 227 -168
246 -178 10 -6 43 -29 72 -51 30 -22 102 -76 162 -119 59 -44 107 -83 107 -87
0 -4 6 -8 14 -8 7 0 29 -13 47 -30 19 -16 37 -30 41 -30 11 0 94 -58 108 -75
7 -8 20 -15 30 -15 12 0 20 -11 24 -35 4 -20 13 -35 21 -35 8 0 17 -5 20 -11
5 -7 -4 -9 -26 -7 -32 3 -34 1 -37 -32 -2 -19 -7 -39 -12 -45 -4 -5 -11 -26
-15 -45 -4 -19 -14 -44 -21 -55 -8 -11 -14 -29 -14 -40 0 -11 -7 -32 -14 -47
-8 -15 -14 -42 -14 -59 1 -20 -5 -35 -15 -41 -10 -5 -17 -21 -17 -36 0 -15 -7
-40 -15 -56 -8 -15 -15 -41 -15 -57 0 -17 -6 -32 -15 -35 -10 -4 -15 -20 -15
-44 0 -21 -7 -43 -15 -50 -8 -7 -15 -27 -15 -44 0 -18 -7 -41 -15 -52 -8 -10
-15 -29 -15 -41 0 -12 -8 -38 -17 -58 -18 -37 -10 -61 11 -32 7 9 21 17 30 17
11 0 16 8 15 27 0 31 32 128 49 145 7 7 20 5 43 -6 65 -33 72 -20 34 61 -28
58 -28 58 -56 43 -15 -8 -19 -7 -19 5 0 9 9 15 24 15 14 0 30 10 40 25 17 26
32 30 56 15 12 -7 12 -12 -4 -28 -24 -28 -7 -36 71 -34 49 2 65 -2 69 -13 4
-8 13 -15 21 -15 9 0 13 -8 11 -23 -4 -28 -45 -36 -55 -10 -15 41 -64 46 -81
8 -10 -21 -9 -27 3 -31 8 -4 15 -10 15 -15 0 -18 -95 -80 -132 -86 -22 -3 -42
-12 -45 -20 -9 -22 5 -28 25 -9 11 9 26 14 36 10 22 -8 20 -15 -11 -39 -54
-42 -103 -88 -103 -96 0 -14 28 -11 37 4 4 7 37 34 73 60 36 26 74 56 85 67
12 11 25 20 30 20 6 1 26 14 45 30 19 17 39 30 44 30 13 0 186 132 186 141 0
5 19 17 43 28 23 11 62 36 87 55 25 19 49 35 53 35 5 1 23 17 41 36 19 19 38
35 44 35 6 0 27 9 47 20 53 30 87 25 48 -7 -13 -11 -15 -16 -5 -20 7 -2 18
-11 26 -18 7 -7 28 -22 47 -32 19 -10 48 -30 64 -46 16 -15 35 -27 42 -27 7 0
13 -7 13 -15 0 -9 9 -15 25 -15 16 0 25 -6 25 -15 0 -8 4 -15 10 -15 5 0 25
-13 43 -30 19 -16 39 -30 45 -30 6 0 24 -12 39 -26 15 -14 42 -33 58 -41 17
-9 40 -24 51 -35 20 -18 23 -18 35 -3 8 9 23 25 34 36 17 18 18 21 3 35 -18
18 -38 11 -38 -12 0 -8 -10 -14 -25 -14 -14 0 -25 4 -25 8 0 5 -22 19 -50 32
-56 26 -54 24 -40 51 13 23 40 26 40 4 0 -19 29 -20 44 -1 16 20 76 31 76 14
0 -22 46 -58 73 -58 14 0 29 -4 32 -10 3 -5 1 -10 -4 -10 -6 0 -11 -9 -11 -20
0 -11 -7 -23 -15 -26 -8 -3 -17 -14 -20 -25 -4 -12 -16 -19 -30 -19 -30 0 -42
-18 -18 -27 10 -4 53 -34 96 -66 42 -33 80 -57 83 -54 4 4 1 13 -5 21 -10 12
-8 17 8 26 25 13 27 35 6 44 -9 3 -15 19 -15 41 0 28 -4 35 -20 35 -23 0 -25
-15 -6 -51 12 -23 11 -29 -4 -49 l-17 -23 -14 29 c-8 16 -23 30 -34 32 -11 2
-24 8 -29 12 -13 13 35 60 62 60 15 0 26 9 32 25 5 14 16 25 23 25 14 0 32 94
21 111 -10 16 -24 9 -24 -11 0 -11 -9 -29 -20 -40 -20 -20 -20 -20 -20 4 0 16
-7 27 -20 31 -11 3 -20 13 -20 21 0 8 -3 14 -7 15 -5 0 -19 2 -32 3 -16 2 -25
-3 -28 -15 -3 -11 -10 -16 -15 -13 -5 3 -7 11 -5 18 4 11 -3 11 -85 7 -9 -1
-19 -9 -21 -18 -3 -10 -5 -2 -6 18 l-1 36 110 0 c60 0 107 -4 104 -8 -8 -13
15 -49 31 -49 33 0 48 87 20 110 -8 7 -15 25 -15 40 0 15 -7 33 -15 40 -8 7
-15 27 -15 45 0 19 -6 46 -14 62 -23 47 -38 96 -44 138 -2 22 -11 44 -18 48
-8 4 -14 23 -14 41 0 23 -7 38 -22 48 -20 13 -21 17 -9 46 9 20 28 38 55 52
22 11 52 29 66 40 50 39 161 120 165 120 3 0 67 46 142 102 76 57 146 107 155
113 34 19 184 125 203 142 11 10 46 36 78 57 31 22 57 43 57 48 0 4 -251 8
-557 8 -590 1 -593 1 -593 46 -1 10 -9 37 -20 59 -11 22 -19 45 -20 52 0 15
-59 202 -70 223 -4 9 -11 35 -15 58 -4 23 -10 44 -15 47 -5 3 -11 23 -15 45
-4 22 -11 42 -16 46 -5 3 -9 15 -9 27 0 12 -7 35 -15 51 -8 15 -15 37 -15 47
0 11 -9 36 -20 56 -11 21 -20 49 -20 63 0 14 -4 30 -8 35 -5 6 -18 44 -31 85
-12 41 -27 85 -32 98 -5 13 -9 31 -9 42 0 23 -19 37 -24 18z m533 -1850 c12
-15 11 -18 -3 -18 -10 0 -16 8 -16 22 0 12 1 19 3 17 1 -2 9 -12 16 -21z
m-1024 -235 c-7 -27 -7 -28 -16 -5 -10 27 -1 58 14 43 5 -5 6 -22 2 -38z
m1076 -46 c-8 -8 -11 -3 -11 19 1 25 2 27 11 11 8 -14 8 -22 0 -30z m-558 -22
c4 -8 3 -16 -1 -19 -13 -8 -35 11 -28 23 10 15 23 14 29 -4z m-633 -14 c0 -11
-4 -23 -10 -26 -6 -4 -10 5 -10 19 0 14 5 26 10 26 6 0 10 -9 10 -19z m543 1
c-13 -2 -23 -7 -23 -12 0 -14 -46 -60 -59 -60 -6 0 -14 -7 -17 -15 -4 -8 -16
-15 -29 -15 -15 0 -25 -7 -28 -21 -3 -12 -11 -19 -18 -17 -21 7 -22 27 -2 35
10 3 22 12 26 20 4 7 17 13 27 13 10 0 23 7 28 16 13 23 94 74 106 66 6 -4 1
-8 -11 -10z m-443 -7 c10 -13 9 -19 -5 -35 -23 -25 -38 -12 -29 24 7 30 16 33
34 11z m737 -31 c-9 -9 -28 6 -21 18 4 6 10 6 17 -1 6 -6 8 -13 4 -17z m-107
-14 c0 -5 -7 -10 -15 -10 -8 0 -15 5 -15 10 0 6 7 10 15 10 8 0 15 -4 15 -10z
m80 -60 c0 -5 -7 -10 -15 -10 -8 0 -15 5 -15 10 0 6 7 10 15 10 8 0 15 -4 15
-10z m-891 -44 c-9 -8 -10 -7 -5 7 3 10 7 24 7 30 1 7 3 4 6 -7 3 -10 -1 -23
-8 -30z m209 10 c5 -38 -4 -57 -23 -50 -15 6 -22 64 -8 78 13 13 28 -1 31 -28z
m-107 -23 c-9 -16 -10 -14 -11 12 0 21 3 26 11 18 8 -8 8 -16 0 -30z m219 -62
c0 -11 -9 -21 -22 -24 -13 -2 -31 -8 -40 -12 -16 -6 -16 -5 -2 24 18 36 64 45
64 12z m775 -1 c0 -18 -43 -26 -57 -12 -16 16 2 33 30 30 16 -2 27 -9 27 -18z"/>
<path d="M4141 1089 c-9 -28 -8 -35 14 -61 14 -16 25 -38 25 -48 0 -9 7 -23
15 -30 11 -9 13 -16 5 -24 -5 -5 -10 -14 -10 -18 0 -13 28 -9 32 4 5 13 -16
82 -32 110 -6 10 -10 29 -10 42 0 30 -9 56 -20 56 -4 0 -13 -14 -19 -31z"/>
<path d="M4213 845 c-19 -21 -16 -27 31 -62 47 -36 68 -43 44 -15 -9 9 -19 28
-23 42 -8 27 -24 50 -34 50 -3 -1 -12 -7 -18 -15z"/>
<path d="M2467 834 c-4 -4 -7 -16 -7 -27 0 -11 -7 -29 -17 -39 -33 -37 12 -19
57 22 36 33 40 40 22 40 -11 0 -27 2 -34 5 -8 3 -17 2 -21 -1z"/>
</g>
</svg>
